<?xml version="1.0"?>
<svg xmlns="http://www.w3.org/2000/svg" viewBox="0 -400 500 500" style="background: #FFFFCC">
  <text x="175" y="-325" font-size="40">Results</text>
  <text x="-60" y="-385" font-size="10">Time taken: 488.965061385</text>
  <text x="-60" y="-350" font-size="12">Average flay: 1223.579661016949</text>
  <text x="-60" y="-325" font-size="12">Average flog: 65.96610169491525</text>
  <rect x="0" y="-185" width="50" height="185" stroke="red"/>
  <text x="0" y="-205" font-size="15">63.79%</text>
  <text x="0" y="-188" font-size="15">(37/58)</text>
  <text x="0" y="10" font-size="12">vh_nivo</text>
  <rect x="75" y="-235" width="50" height="235" stroke="red"/>
  <text x="75" y="-255" font-size="15">81.03%</text>
  <text x="75" y="-238" font-size="15">(47/58)</text>
  <text x="75" y="10" font-size="12">class002</text>
  <rect x="150" y="-250" width="50" height="250" stroke="red"/>
  <text x="150" y="-270" font-size="15">86.21%</text>
  <text x="150" y="-253" font-size="15">(50/58)</text>
  <text x="150" y="10" font-size="12">class003</text>
  <rect x="225" y="-260" width="50" height="260" stroke="red"/>
  <text x="225" y="-280" font-size="15">89.66%</text>
  <text x="225" y="-263" font-size="15">(52/58)</text>
  <text x="225" y="10" font-size="12">class004</text>
  <rect x="300" y="-200" width="50" height="200" stroke="red"/>
  <text x="300" y="-220" font-size="15">68.97%</text>
  <text x="300" y="-203" font-size="15">(40/58)</text>
  <text x="300" y="10" font-size="12">class009</text>
  <rect x="375" y="-225" width="50" height="225" stroke="red"/>
  <text x="375" y="-245" font-size="15">77.59%</text>
  <text x="375" y="-228" font-size="15">(45/58)</text>
  <text x="375" y="10" font-size="12">class012</text>
  <rect x="450" y="-245" width="50" height="245" stroke="red"/>
  <text x="450" y="-265" font-size="15">84.48%</text>
  <text x="450" y="-248" font-size="15">(49/58)</text>
  <text x="450" y="10" font-size="12">class014</text>
</svg>
